<svg xmlns= "http://www.w3.org/2000/svg" viewBox="0 0 584 102">
        <defs>
          <path d="M0 102h584V0H0z" id="a"></path>
        </defs>
        <g fill="none" fill-rule="evenodd">
          <path d=
          "M42.376 102L18.28 21.975h-.62c.866 16.278 1.3 27.14 1.3 32.58V102H0V0h28.885l23.687 78.003h.41L78.109 0H107v102H87.217V53.72c0-2.279.035-4.91.105-7.886.064-2.976.369-10.88.919-23.722h-.62L61.813 102H42.376zM362.161 45.28h11.675c6.795 0 11.811-1.14 15.049-3.418 3.237-2.279 4.856-5.864 4.856-10.743 0-4.838-1.654-8.28-4.963-10.325-3.297-2.046-8.426-3.072-15.357-3.072h-11.26V45.28zm0 17.584V102H344V0h29.54c13.773 0 23.972 2.523 30.583 7.57 6.611 5.046 9.92 12.71 9.92 22.988 0 6-1.643 11.34-4.928 16.01-3.284 4.677-7.927 8.339-13.94 10.993 15.263 22.93 25.2 37.74 29.825 44.439h-23.86l-24.203-39.136h-14.776zM584 102h-24.362l-23.391-38.581L512.844 102H490l33.375-52.605L492.135 0h23.533l21.673 36.696L558.61 0h22.985l-31.586 50.582z"
          fill="#1D1D1B"></path>
          <path d=
          "M136 18h18V0h-18zM162 18h50V0h-50zM136 102h18V84h-18zM162 102h50V84h-50zM136 60h18V42h-18zM162 60h50V42h-50zM269 18h18V0h-18z"
          fill="#1D1D1B" mask="url(#mas-2)"></path>
          <path d="M269 102h18V0h-18z" fill="#1D1D1B" mask=
          "url(#mas-2)"></path>
          <path d="M240 18h76V0h-76z" fill="#1D1D1B" mask=
          "url(#mas-2)"></path>
          <path d="M448 18h18V0h-18zM448 102h18V53h-18z" fill=
          "#1D1D1B"></path>
          <path d="M448 60h18V42h-18z" fill="#1D1D1B"></path>
        </g></svg>
