<?xml version="1.0" standalone="no"?>
<!DOCTYPE svg PUBLIC "-//W3C//DTD SVG 20010904//EN"
 "http://www.w3.org/TR/2001/REC-SVG-20010904/DTD/svg10.dtd">
<svg version="1.0" xmlns="http://www.w3.org/2000/svg"
 width="816.000000pt" height="816.000000pt" viewBox="0 0 816.000000 816.000000"
 preserveAspectRatio="xMidYMid meet">
<metadata>
Created by potrace 1.11, written by Peter Selinger 2001-2013
</metadata>
<g transform="translate(0.000000,816.000000) scale(0.100000,-0.100000)"
fill="#000000" stroke="none">
<path d="M1040 7439 c0 -599 2 -720 13 -716 8 3 20 2 27 -3 7 -4 26 -4 41 0
16 5 29 5 29 0 0 -5 13 -5 29 0 15 4 33 5 40 1 6 -4 34 -5 61 -1 27 4 55 3 62
-1 6 -4 19 -4 28 1 9 5 22 5 29 0 8 -4 27 -4 42 0 16 5 29 5 29 0 0 -5 13 -5
29 0 16 4 32 6 35 3 7 -8 116 -9 116 -1 0 4 14 3 30 -2 17 -5 30 -6 30 -2 0 8
109 7 117 -1 3 -3 16 -2 29 3 14 6 26 6 29 0 3 -6 15 -6 30 0 14 5 27 5 30 0
3 -5 18 -5 35 0 17 5 30 6 30 2 0 -4 27 -7 60 -7 33 0 60 3 60 7 0 4 14 3 30
-2 17 -5 30 -6 30 -2 0 8 109 7 117 -1 3 -3 15 -2 28 3 13 5 26 6 29 3 5 -6
32 -7 95 -4 20 1 36 47 20 57 -5 3 -5 13 1 23 5 10 7 21 4 24 -6 6 -6 26 -3
143 1 29 -1 57 -5 63 -4 6 -2 11 4 11 6 0 8 5 5 11 -7 10 -7 32 -4 155 1 29
-1 56 -5 62 -3 6 -2 13 3 16 5 4 6 19 3 34 -6 25 -7 51 -2 77 4 26 2 104 -4
114 -4 6 -2 11 4 11 6 0 8 5 5 11 -7 10 -7 32 -4 155 1 29 -1 56 -5 62 -3 6
-2 13 3 16 5 4 6 19 3 34 -6 25 -7 51 -2 77 4 26 2 104 -4 114 -4 6 -2 11 4
11 6 0 8 5 5 11 -7 10 -10 93 -5 114 8 35 16 35 -720 35 l-720 0 0 -721z"/>
<path d="M3117 8148 c-2 -7 -1 -24 3 -38 4 -14 4 -34 0 -45 -4 -11 -4 -29 0
-40 4 -11 4 -31 0 -45 -4 -14 -3 -34 1 -46 4 -11 4 -27 -1 -34 -5 -7 -5 -23 0
-35 5 -12 5 -28 0 -35 -4 -7 -4 -24 0 -39 4 -14 4 -35 0 -46 -4 -11 -4 -29 0
-40 4 -11 4 -31 0 -45 -4 -14 -3 -34 1 -46 4 -11 4 -27 -1 -34 -5 -7 -5 -23
-1 -34 5 -12 6 -30 4 -41 -7 -36 -6 -122 1 -134 4 -6 3 -11 -3 -11 -6 0 -7
-11 -3 -27 4 -16 6 -41 5 -58 -6 -59 -5 -134 1 -144 4 -5 2 -12 -3 -16 -6 -3
-7 -16 -3 -28 4 -12 6 -35 5 -52 -6 -69 -5 -133 1 -144 4 -6 2 -11 -4 -11 -6
0 -8 -5 -5 -10 6 -10 10 -95 5 -115 -8 -31 1 -36 70 -34 19 0 42 0 50 0 58 -3
132 -1 139 4 5 3 12 1 16 -4 3 -6 15 -7 29 -1 12 4 29 4 36 0 8 -5 17 -7 20
-5 4 2 24 4 46 4 92 2 170 2 182 2 14 -1 36 -1 55 -1 6 1 38 -1 70 -2 31 -2
57 0 57 4 0 4 14 3 30 -2 17 -5 30 -6 30 -2 0 8 109 7 117 -1 3 -3 16 -2 29 3
14 6 26 6 29 0 3 -6 15 -6 30 0 14 5 27 5 30 0 3 -5 18 -5 35 0 17 5 30 6 30
2 0 -4 27 -7 60 -7 33 0 60 3 60 7 0 4 14 3 30 -2 17 -5 30 -6 30 -2 0 8 109
7 117 -1 3 -3 16 -2 29 3 13 5 26 6 29 0 3 -5 18 -5 35 0 17 5 30 5 30 0 0 -5
13 -5 29 0 16 4 32 6 35 3 7 -8 116 -9 116 -1 0 4 14 3 30 -2 17 -5 30 -6 30
-2 0 8 109 7 117 -1 3 -3 16 -2 29 3 14 6 26 6 29 0 3 -6 15 -6 30 0 14 5 27
5 30 0 3 -5 18 -5 35 0 17 5 30 6 30 2 0 -4 27 -7 60 -7 33 0 60 3 60 7 0 4
14 3 30 -2 17 -5 30 -6 30 -2 0 8 109 7 117 -1 3 -3 16 -2 29 3 13 5 26 6 29
0 3 -5 18 -5 35 0 17 5 30 5 30 0 0 -5 13 -5 29 0 16 4 32 6 35 3 7 -8 116 -9
116 -1 0 4 14 3 30 -2 17 -5 30 -6 30 -2 0 8 109 7 117 -1 3 -3 16 -2 29 3 14
6 26 6 29 0 3 -6 15 -6 30 0 14 5 27 5 30 0 3 -5 18 -5 35 0 17 5 30 6 30 2 0
-4 27 -7 60 -7 33 0 60 3 60 7 0 4 14 3 30 -2 16 -5 30 -6 30 -2 0 4 24 6 52
4 86 -5 168 -3 177 3 5 3 12 1 16 -4 3 -6 15 -7 29 -1 12 4 29 4 36 0 8 -5 17
-7 20 -5 4 2 24 4 46 4 92 2 170 2 182 2 6 -1 19 -1 27 -1 8 0 22 0 30 0 8 0
21 0 28 -1 6 0 30 0 52 1 22 1 47 1 55 -1 13 -4 15 82 18 719 l2 722 -1999 0
c-1591 0 -2000 -3 -2004 -12z"/>
<path d="M1052 4801 c-9 -6 -12 -171 -10 -721 l3 -714 28 -7 c15 -4 27 -3 27
1 0 5 14 5 30 0 17 -5 30 -5 30 0 0 5 13 5 30 0 17 -5 30 -5 30 0 0 5 13 5 30
0 17 -5 30 -5 30 0 0 5 13 5 30 0 17 -5 30 -5 30 0 0 5 13 5 30 0 17 -5 30 -5
30 0 0 5 13 5 30 0 17 -5 30 -5 30 0 0 5 13 5 30 0 19 -5 30 -5 30 1 0 6 5 7
10 4 6 -4 34 -6 63 -6 69 1 82 1 112 1 14 0 32 0 40 0 8 0 26 0 40 0 31 0 51
0 68 0 6 -1 38 0 69 1 32 1 61 0 64 -4 4 -3 14 -2 23 3 10 5 23 5 31 0 8 -5
21 -5 30 0 9 5 22 5 30 0 8 -5 21 -5 30 0 9 5 22 5 30 0 7 -4 24 -4 36 0 14 6
26 5 29 0 3 -5 18 -5 35 0 17 5 30 5 30 0 0 -5 13 -5 30 0 17 5 30 6 30 2 0
-4 16 -7 35 -7 19 0 35 3 35 6 0 3 13 4 29 1 26 -4 29 -1 33 33 2 20 0 38 -4
41 -5 3 -4 13 1 22 5 9 5 26 1 38 -5 12 -6 24 -4 27 10 10 9 147 -1 151 -5 3
-4 5 3 5 7 1 10 6 7 12 -7 10 -7 32 -4 155 1 29 -1 56 -5 62 -3 6 -2 13 3 16
5 4 6 19 3 34 -6 25 -7 51 -2 77 4 26 2 104 -4 114 -4 6 -2 11 4 11 6 0 8 5 5
11 -7 10 -7 32 -4 155 1 29 -1 56 -5 62 -3 6 -2 13 3 16 5 4 6 19 3 34 -6 25
-7 51 -2 77 4 26 2 104 -4 114 -4 6 -2 11 5 11 9 0 10 3 3 10 -6 6 -7 35 -4
70 6 67 0 86 -24 77 -9 -4 -16 -2 -16 2 0 5 -15 5 -34 1 -19 -4 -40 -4 -47 1
-7 4 -20 4 -30 -1 -9 -5 -19 -7 -22 -3 -4 3 -33 5 -64 4 -55 -2 -66 -2 -95 -1
-7 1 -38 0 -69 -1 -30 -1 -60 0 -65 4 -6 3 -16 2 -24 -3 -7 -4 -24 -4 -36 0
-14 6 -26 5 -29 0 -3 -5 -18 -5 -35 0 -18 5 -32 5 -36 -1 -3 -5 -10 -6 -16 -3
-5 4 -36 6 -69 5 -32 -1 -66 -1 -74 -1 -8 0 -22 0 -30 0 -8 0 -40 0 -70 -1
-31 -1 -58 1 -61 4 -4 3 -16 2 -28 -3 -13 -4 -29 -5 -36 0 -7 5 -23 5 -35 0
-12 -5 -28 -4 -35 0 -8 5 -21 5 -30 0 -9 -5 -22 -5 -29 -1 -7 5 -29 5 -49 1
-20 -3 -48 -3 -62 0 -14 4 -34 3 -46 -1 -11 -4 -27 -4 -34 1 -7 5 -23 5 -35 0
-11 -4 -28 -4 -36 0 -8 5 -20 5 -27 1z"/>
<path d="M3177 4804 c-3 -3 -18 -6 -35 -6 -27 -1 -29 -3 -23 -27 3 -14 5 -39
4 -56 -6 -59 -5 -134 1 -144 4 -5 2 -12 -3 -16 -6 -3 -7 -16 -3 -28 4 -12 6
-35 5 -52 -6 -69 -5 -133 1 -144 4 -6 3 -11 -3 -11 -6 0 -7 -11 -3 -27 4 -16
6 -41 5 -58 -6 -59 -5 -134 1 -144 4 -5 2 -12 -3 -16 -6 -3 -7 -16 -3 -28 4
-12 6 -35 5 -52 -6 -69 -5 -133 1 -144 4 -6 3 -11 -3 -11 -6 0 -7 -11 -3 -27
4 -16 6 -41 5 -58 -5 -56 -5 -136 0 -142 3 -3 2 -15 -2 -27 -5 -11 -5 -30 -1
-41 4 -11 4 -31 0 -45 -4 -14 -4 -35 1 -47 4 -12 4 -25 -1 -28 -16 -10 5 -60
26 -60 10 -1 24 -4 31 -8 6 -4 14 -3 17 2 4 6 18 6 36 1 17 -5 30 -5 30 0 0 5
13 5 30 0 17 -5 30 -5 30 0 0 5 13 5 30 0 17 -5 30 -5 30 0 0 5 13 5 30 0 19
-5 30 -5 30 1 0 6 5 7 10 4 6 -4 34 -6 63 -6 69 1 82 1 112 1 14 0 32 0 40 0
8 0 26 0 40 0 31 0 51 0 68 0 6 -1 38 0 69 1 32 1 61 0 64 -4 4 -3 14 -2 23 3
10 5 23 5 31 0 8 -5 21 -5 30 0 9 5 22 5 30 0 8 -5 21 -5 30 0 9 5 22 5 30 0
7 -4 24 -4 36 0 14 6 26 5 29 0 3 -5 18 -5 35 0 17 5 30 5 30 0 0 -5 13 -5 30
0 17 5 30 5 30 0 0 -5 13 -5 30 0 17 5 30 6 30 2 0 -4 16 -7 35 -7 19 0 35 4
35 8 0 5 5 5 10 2 6 -4 34 -6 63 -6 69 1 82 1 112 1 14 0 32 0 40 0 8 0 26 0
40 0 14 0 33 0 43 0 21 0 59 1 92 4 14 1 37 -2 53 -6 15 -3 27 -3 27 2 0 5 13
5 30 0 17 -5 30 -5 30 0 0 5 13 5 30 0 17 -5 30 -5 30 0 0 5 13 5 30 0 17 -5
30 -5 30 0 0 5 13 5 30 0 17 -5 30 -5 30 0 0 5 13 5 30 0 17 -5 30 -5 30 0 0
5 13 5 30 0 17 -5 30 -5 30 0 0 5 13 5 30 0 17 -5 30 -5 30 0 0 5 13 5 30 0
19 -5 30 -5 30 1 0 6 5 7 10 4 6 -4 34 -6 63 -6 69 1 82 1 112 1 14 0 32 0 40
0 8 0 26 0 40 0 31 0 51 0 68 0 6 -1 38 0 69 1 32 1 61 0 64 -4 4 -3 14 -2 23
3 10 5 23 5 31 0 8 -5 21 -5 30 0 9 5 22 5 30 0 8 -5 21 -5 30 0 9 5 22 5 30
0 7 -4 24 -4 36 0 14 6 26 5 29 0 3 -5 18 -5 35 0 17 5 30 5 30 0 0 -5 13 -5
30 0 17 5 30 5 30 0 0 -5 13 -5 30 0 17 5 30 6 30 2 0 -4 16 -7 35 -7 19 0 35
4 35 8 0 5 5 5 10 2 6 -4 34 -6 63 -6 69 1 82 1 112 1 14 0 32 0 40 0 8 0 26
0 40 0 14 0 33 0 43 0 21 0 59 1 92 4 14 1 37 -2 53 -6 15 -3 27 -3 27 2 0 5
13 5 30 0 17 -5 30 -5 30 0 0 5 13 5 30 0 17 -5 30 -5 30 0 0 5 13 5 30 0 17
-5 30 -5 30 0 0 5 13 5 30 0 17 -5 32 -5 35 0 3 5 16 6 28 1 49 -18 47 -45 47
719 0 760 1 737 -45 720 -11 -4 -29 -4 -40 0 -11 4 -29 4 -41 0 -11 -5 -27 -4
-34 0 -8 5 -18 6 -22 4 -12 -8 -113 -8 -124 -1 -6 3 -16 2 -24 -3 -7 -4 -24
-4 -36 0 -14 6 -26 5 -29 0 -3 -5 -18 -5 -35 0 -18 5 -32 5 -36 -1 -3 -5 -10
-6 -16 -3 -5 4 -36 6 -69 5 -57 -1 -75 -2 -101 -1 -7 1 -38 1 -68 0 -51 0 -63
0 -105 0 -8 0 -22 0 -30 0 -8 0 -22 0 -30 0 -17 0 -57 0 -82 0 -10 0 -38 -1
-63 -1 -25 0 -51 0 -57 0 -7 1 -20 1 -28 1 -8 0 -22 0 -30 0 -8 0 -22 0 -30 0
-8 0 -22 0 -30 0 -40 -1 -72 -1 -90 0 -11 1 -24 1 -30 1 -5 0 -30 0 -55 0 -25
0 -54 -1 -65 -1 -11 -1 -27 -1 -35 0 -8 0 -24 0 -35 0 -11 -1 -26 -1 -32 -1
-13 1 -26 1 -60 1 -103 -1 -135 -1 -165 0 -7 1 -38 0 -69 -1 -30 -1 -60 0 -65
4 -6 3 -16 2 -24 -3 -7 -4 -24 -4 -36 0 -14 6 -26 5 -29 0 -3 -5 -18 -5 -35 0
-18 5 -32 5 -36 -1 -3 -5 -10 -6 -16 -3 -5 4 -36 6 -69 5 -32 -1 -67 -1 -76
-1 -10 0 -29 0 -43 -1 -23 -1 -41 -1 -115 0 -61 1 -70 1 -90 1 -11 -1 -26 -1
-32 -1 -7 1 -20 1 -28 1 -8 0 -23 0 -32 0 -10 0 -38 0 -63 -1 -25 -1 -51 -1
-57 0 -7 0 -20 1 -28 1 -8 0 -22 0 -30 0 -8 0 -22 0 -30 0 -8 0 -22 0 -30 0
-17 0 -57 0 -82 0 -10 0 -38 -1 -63 -1 -25 0 -51 0 -57 0 -7 1 -20 1 -28 1 -8
0 -22 0 -30 0 -8 0 -22 0 -30 0 -8 0 -22 0 -30 0 -8 0 -26 0 -40 0 -14 0 -32
0 -40 0 -8 0 -40 0 -70 0 -60 0 -78 0 -97 0 -7 1 -38 0 -69 -1 -30 -1 -60 0
-65 4 -6 3 -16 2 -24 -3 -7 -4 -24 -4 -36 0 -14 6 -26 5 -29 0 -3 -5 -18 -5
-35 0 -18 5 -32 5 -36 -1 -3 -5 -10 -6 -16 -3 -12 8 -123 8 -135 1 -5 -3 -15
-2 -22 3 -8 4 -26 4 -41 0 -15 -4 -34 -4 -42 1 -8 5 -18 6 -21 3z"/>
<path d="M1053 1443 c-10 -4 -13 -158 -13 -724 l0 -719 719 0 c567 0 720 3
724 13 2 6 0 24 -4 39 -4 15 -4 30 1 33 5 3 5 18 2 33 -6 25 -7 51 -2 77 4 26
2 104 -4 114 -4 6 -2 11 4 11 6 0 8 5 5 11 -4 6 -7 33 -6 60 1 27 1 71 2 98 1
27 -2 54 -5 60 -4 5 -2 12 3 16 6 3 7 15 2 28 -4 12 -4 36 -1 52 3 17 3 40 -1
52 -5 12 -4 25 1 28 5 3 6 16 1 28 -4 12 -4 36 -1 52 3 17 3 40 -1 52 -5 12
-4 25 1 28 5 3 6 16 1 28 -4 12 -4 36 -1 52 3 17 3 40 -1 52 -5 12 -4 25 1 28
5 3 6 16 1 28 -4 12 -4 36 -1 52 3 17 3 40 -1 52 -5 12 -4 25 1 28 5 3 6 15 1
27 -4 12 -5 38 -1 59 4 21 4 43 -1 50 -4 7 -3 22 1 35 5 12 6 25 2 29 -4 4 -7
12 -7 18 0 7 -10 12 -23 11 -12 0 -22 3 -22 7 0 4 -13 4 -30 -1 -17 -5 -32 -5
-35 0 -3 6 -16 5 -29 0 -13 -5 -27 -6 -30 -3 -8 8 -102 7 -116 -2 -5 -3 -10
-2 -10 4 0 6 -11 6 -30 1 -16 -5 -32 -5 -35 0 -3 4 -21 4 -40 0 -19 -4 -35 -4
-35 0 0 5 -13 5 -30 0 -19 -5 -30 -5 -30 1 0 6 -5 7 -10 4 -14 -9 -108 -10
-116 -2 -4 3 -14 2 -23 -3 -10 -5 -23 -5 -31 0 -8 5 -21 5 -30 0 -9 -5 -22 -5
-30 0 -7 4 -24 4 -36 0 -14 -6 -26 -5 -29 0 -3 5 -18 5 -35 0 -17 -5 -30 -5
-30 0 0 5 -13 5 -30 0 -17 -5 -30 -5 -30 0 0 5 -13 5 -30 0 -16 -5 -30 -6 -30
-2 0 4 -16 7 -35 7 -19 0 -35 -3 -35 -7 0 -4 -13 -3 -30 2 -17 5 -30 5 -30 0
0 -5 -12 -5 -27 -1 -16 4 -39 5 -53 1 -14 -4 -34 -4 -45 0 -11 4 -32 4 -47 -1
-16 -4 -28 -4 -28 1 0 4 -15 4 -34 0 -18 -4 -40 -4 -47 0 -8 4 -20 5 -26 3z"/>
<path d="M3158 1439 c-5 -4 -19 -4 -29 -2 -17 5 -18 2 -12 -18 5 -13 7 -40 6
-59 -6 -71 -5 -139 1 -149 4 -5 2 -12 -3 -16 -6 -3 -7 -15 -2 -28 4 -12 5 -33
1 -47 -4 -14 -3 -37 1 -52 4 -15 4 -30 -1 -33 -5 -3 -6 -16 -2 -28 4 -12 6
-35 5 -52 -6 -69 -5 -133 1 -144 4 -6 3 -11 -3 -11 -6 0 -7 -11 -3 -27 4 -16
6 -41 5 -58 -6 -59 -5 -134 1 -144 4 -5 2 -12 -3 -16 -6 -3 -7 -16 -3 -28 4
-12 6 -35 5 -52 -6 -69 -5 -133 1 -144 4 -6 3 -11 -3 -11 -6 0 -7 -11 -3 -27
4 -16 6 -41 5 -58 -6 -59 -5 -134 1 -144 4 -5 2 -12 -3 -16 -6 -3 -7 -15 -2
-28 4 -12 6 -28 4 -34 -4 -10 400 -13 1996 -13 l2001 0 0 720 c0 736 0 728
-35 720 -21 -5 -106 -2 -112 3 -3 4 -13 2 -22 -3 -10 -5 -23 -5 -31 0 -8 5
-21 5 -30 0 -9 -5 -22 -5 -30 0 -7 4 -24 4 -36 0 -14 -6 -26 -5 -29 0 -3 5
-18 5 -35 0 -17 -5 -30 -5 -30 0 0 5 -13 5 -30 0 -17 -5 -30 -5 -30 0 0 5 -13
5 -30 0 -16 -5 -30 -6 -30 -2 0 4 -16 7 -35 7 -19 0 -35 -3 -35 -7 0 -4 -13
-3 -30 2 -17 5 -30 5 -30 0 0 -5 -12 -5 -27 -1 -16 4 -39 5 -53 1 -14 -4 -35
-3 -47 1 -12 5 -25 4 -28 -1 -3 -6 -15 -6 -29 0 -13 5 -27 6 -30 3 -8 -8 -76
-9 -76 -1 0 4 -13 3 -30 -2 -17 -5 -30 -5 -30 0 0 5 -13 5 -30 0 -17 -5 -30
-5 -30 0 0 5 -13 5 -30 0 -17 -5 -32 -5 -35 0 -3 5 -15 6 -29 0 -12 -4 -29 -4
-36 0 -8 5 -21 5 -30 0 -9 -5 -22 -5 -30 0 -8 5 -21 5 -30 0 -9 -5 -22 -5 -29
-1 -7 5 -29 5 -50 1 -21 -4 -47 -3 -59 1 -12 5 -24 4 -27 -1 -3 -6 -15 -6 -29
0 -13 5 -27 6 -30 3 -8 -8 -76 -9 -76 -1 0 4 -13 3 -30 -2 -17 -5 -30 -5 -30
0 0 5 -13 5 -30 0 -17 -5 -30 -5 -30 0 0 5 -13 5 -30 0 -17 -5 -32 -5 -35 0
-3 5 -15 6 -29 0 -12 -4 -29 -4 -36 0 -8 5 -21 5 -30 0 -9 -5 -22 -5 -30 0 -8
5 -21 5 -30 0 -9 -5 -22 -5 -29 -1 -7 5 -29 5 -50 1 -21 -4 -47 -3 -59 1 -12
5 -24 4 -27 -1 -3 -6 -15 -6 -29 0 -13 5 -27 6 -30 3 -8 -8 -76 -9 -76 -1 0 4
-13 3 -30 -2 -17 -5 -30 -5 -30 0 0 5 -13 5 -30 0 -17 -5 -30 -5 -30 0 0 5
-13 5 -30 0 -17 -5 -32 -5 -35 0 -3 5 -15 6 -29 0 -12 -4 -29 -4 -36 0 -8 5
-21 5 -30 0 -9 -5 -22 -5 -30 0 -8 5 -21 5 -30 0 -9 -5 -22 -5 -29 -1 -7 5
-29 5 -50 1 -21 -4 -47 -3 -59 1 -12 5 -24 4 -27 -1 -3 -6 -15 -6 -29 0 -13 5
-27 6 -30 3 -8 -8 -76 -9 -76 -1 0 4 -13 3 -30 -2 -17 -5 -30 -5 -30 0 0 5
-13 5 -30 0 -17 -5 -30 -5 -30 0 0 5 -13 5 -30 0 -17 -5 -32 -5 -35 0 -3 5
-15 6 -29 0 -12 -4 -29 -4 -36 0 -8 5 -21 5 -30 0 -9 -5 -22 -5 -30 0 -8 5
-21 5 -30 0 -9 -5 -22 -5 -28 -1 -7 4 -35 5 -62 1 -27 -4 -55 -3 -62 1 -6 4
-19 4 -28 -1 -9 -5 -22 -5 -30 0 -8 5 -21 5 -30 0 -9 -5 -22 -5 -30 0 -7 4
-24 4 -36 0 -14 -6 -26 -5 -29 0 -3 5 -18 5 -35 0 -17 -5 -30 -5 -30 0 0 5
-13 5 -30 0 -17 -5 -30 -5 -30 0 0 5 -13 5 -30 0 -16 -5 -30 -6 -30 -2 0 4
-16 7 -35 7 -19 0 -35 -3 -35 -7 0 -4 -13 -3 -30 2 -17 5 -30 5 -30 0 0 -5 -6
-7 -13 -4 -22 8 -97 10 -109 3z"/>
</g>
</svg>
