<svg width="383" height="148" viewBox="0 0 383 148" xmlns="http://www.w3.org/2000/svg"><title>Group 12</title><g stroke="#000" fill="none" fill-rule="evenodd"><path stroke-width="2" d="M65 69h15v14H65z"/><g transform="translate(0 1)"><path d="M59.855 74.5H35.144m24.71 4H39m20.857 4H46" stroke-width="2" stroke-linecap="square"/><path stroke-width="2" d="M18 56h66v30H18z"/><path stroke-width="2" d="M22 60h38v4H22zm0 4h19v4H22zm43 18l15.03-14.062m-15.012.297L80 82"/><path d="M112.667 76.5H164m-10.8 3l10.8-3-10.8-3" stroke-width="2" stroke-linecap="round" stroke-linejoin="round"/><path d="M199.187 92h26.343m-26.343-17h26.343m-26.343-17h26.343M183 92.5h8m-8-17h8m-8-18h8" stroke-width="6" stroke-linejoin="round"/><path stroke-width="2" stroke-linecap="round" stroke-linejoin="round" d="M239 92h30.136v26H305"/><path d="M294.2 121l10.8-3-10.8-3M239 57h30.136V31H305m-10.8 29l10.8-3-10.8-3" stroke-width="2" stroke-linecap="round" stroke-linejoin="round"/><circle stroke-width="2" cx="351" cy="30" r="30"/><g stroke-width="2"><path d="M324 119h8v27h-8zm12-11h8v38h-8zm12 30h8v8h-8zm12-42h8v50h-8z"/><path d="M320.371 88.45v57.455h62.167"/></g><path stroke-width="2" stroke-linecap="round" stroke-linejoin="round" d="M322 31h29l-20.938-21"/><path d="M350 31l13 25" stroke-width="2"/><rect stroke-width="2" x="8" y="44" width="87" height="57" rx="4"/><path stroke-width="2" d="M13 50h77v46H13zM3 101a2 2 0 0 0-1.99 2.198l.399 4A2 2 0 0 0 3.399 109h94.203a2 2 0 0 0 1.99-1.802l.398-4A2 2 0 0 0 98 101H3z"/></g></g></svg>