<?xml version="1.0" encoding="UTF-8"?>
<svg width="360px" height="227px" viewBox="0 0 360 227" version="1.1" xmlns="http://www.w3.org/2000/svg" xmlns:xlink="http://www.w3.org/1999/xlink">
    <!-- Generator: Sketch 46.1 (44463) - http://www.bohemiancoding.com/sketch -->
    <title>Group 10</title>
    <desc>Created with Sketch.</desc>
    <defs>
        <polygon id="path-1" points="54 31.05005 54 62.1 0 62.1 0 31.05005 0 0.0001 54 0.0001"></polygon>
        <polygon id="path-3" points="53 35.5 53 71 0 71 0 35.5 0 0 53 0"></polygon>
    </defs>
    <g id="Page-1" stroke="none" stroke-width="1" fill="none" fill-rule="evenodd">
        <g id="metrix-landing" transform="translate(-697.000000, -1572.000000)">
            <g id="Group-10" transform="translate(697.000000, 1572.000000)">
                <g id="Page-1" transform="translate(0.000000, 87.000000)" fill="#000000">
                    <path d="M9,5 C8.4,5 8,5.43076923 8,6.07692308 L8,10.9230769 C8,11.5692308 8.4,12 9,12 C9.6,12 10,11.5692308 10,10.9230769 L10,6.07692308 C10,5.43076923 9.6,5 9,5" id="Fill-1"></path>
                    <path d="M16,5 C15.4,5 15,5.43076923 15,6.07692308 L15,10.9230769 C15,11.5692308 15.4,12 16,12 C16.6,12 17,11.5692308 17,10.9230769 L17,6.07692308 C17,5.43076923 16.5,5 16,5" id="Fill-3"></path>
                    <path d="M24,5 C23.4,5 23,5.43076923 23,6.07692308 L23,10.9230769 C23,11.5692308 23.4,12 24,12 C24.6,12 25,11.5692308 25,10.9230769 L25,6.07692308 C25,5.43076923 24.5,5 24,5" id="Fill-5"></path>
                    <path d="M59.1494253,10 L66.8505747,10 C67.5402299,10 68,9.6 68,9 C68,8.4 67.5402299,8 66.8505747,8 L59.1494253,8 C58.4597701,8 58,8.4 58,9 C58,9.6 58.5747126,10 59.1494253,10" id="Fill-7"></path>
                    <path d="M9,28 C8.4,28 8,28.4307692 8,29.0769231 L8,33.9230769 C8,34.5692308 8.4,35 9,35 C9.6,35 10,34.5692308 10,33.9230769 L10,29.0769231 C10,28.4307692 9.6,28 9,28" id="Fill-9"></path>
                    <path d="M16,28 C15.4,28 15,28.4307692 15,29.0769231 L15,33.9230769 C15,34.5692308 15.4,35 16,35 C16.6,35 17,34.5692308 17,33.9230769 L17,29.0769231 C17,28.4307692 16.5,28 16,28" id="Fill-11"></path>
                    <path d="M24,28 C23.4,28 23,28.4307692 23,29.0769231 L23,33.9230769 C23,34.5692308 23.4,35 24,35 C24.6,35 25,34.5692308 25,33.9230769 L25,29.0769231 C25,28.4307692 24.5,28 24,28" id="Fill-13"></path>
                    <path d="M59.1494253,32 L66.8505747,32 C67.5402299,32 68,31.6 68,31 C68,30.4 67.5402299,30 66.8505747,30 L59.1494253,30 C58.4597701,30 58,30.4 58,31 C58,31.6 58.5747126,32 59.1494253,32" id="Fill-15"></path>
                    <path d="M9,50 C8.4,50 8,50.4307692 8,51.0769231 L8,55.9230769 C8,56.5692308 8.4,57 9,57 C9.6,57 10,56.5692308 10,55.9230769 L10,51.0769231 C10,50.5384615 9.6,50 9,50" id="Fill-17"></path>
                    <path d="M16,50 C15.4,50 15,50.4307692 15,51.0769231 L15,55.9230769 C15,56.5692308 15.4,57 16,57 C16.6,57 17,56.5692308 17,55.9230769 L17,51.0769231 C17,50.5384615 16.5,50 16,50" id="Fill-19"></path>
                    <path d="M24,50 C23.4,50 23,50.4307692 23,51.0769231 L23,55.9230769 C23,56.5692308 23.4,57 24,57 C24.6,57 25,56.5692308 25,55.9230769 L25,51.0769231 C25,50.5384615 24.5,50 24,50" id="Fill-21"></path>
                    <path d="M59.1494253,55 L66.8505747,55 C67.5402299,55 68,54.601 68,54 C68,53.4 67.5402299,53 66.8505747,53 L59.1494253,53 C58.4597701,53 58,53.4 58,54 C58,54.601 58.5747126,55 59.1494253,55" id="Fill-23"></path>
                    <g id="Group-27">
                        <path d="M41.6300776,71.7576879 L34.3703761,71.7576879 L34.3703761,67.4970818 L38.0002269,67.4970818 L41.5155104,67.4970818 L41.5155104,71.7576879 L41.6300776,71.7576879 Z M2.26888358,47.4273848 L73.7315701,47.4273848 L73.7315701,60.209203 L38.1136597,60.209203 L2.26888358,60.209203 L2.26888358,47.4273848 Z M2.26888358,24.8910212 L73.7315701,24.8910212 L73.7315701,37.6728394 L38.1136597,37.6728394 L2.26888358,37.6728394 L2.26888358,24.8910212 Z M2.26888358,2.24253636 L73.7315701,2.24253636 L73.7315701,15.0243545 L38.1136597,15.0243545 L2.26888358,15.0243545 L2.26888358,2.24253636 Z M74.8658985,69.2910212 L43.8987343,69.2910212 L43.8987343,66.3758697 C43.8987343,65.7031424 43.445003,65.2546576 42.764406,65.2546576 L39.2468537,65.2546576 L39.2468537,62.5637485 L74.8658985,62.5637485 C75.5453612,62.5637485 76.0002269,62.1141424 76.0002269,61.4425364 L76.0002269,46.3061727 C76.0002269,45.6334455 75.5453612,45.1849606 74.8658985,45.1849606 L39.2468537,45.1849606 L39.2468537,39.9152636 L74.8658985,39.9152636 C75.5453612,39.9152636 76.0002269,39.4667788 76.0002269,38.7940515 L76.0002269,23.7698091 C76.0002269,23.0970818 75.5453612,22.648597 74.8658985,22.648597 L39.2468537,22.648597 L39.2468537,17.3789 L74.8658985,17.3789 C75.5453612,17.3789 76.0002269,16.9304152 76.0002269,16.2576879 L76.0002269,1.12132424 C76.0002269,0.44859697 75.5453612,0.000112121212 74.8658985,0.000112121212 L38.1136597,0.000112121212 L1.13455522,0.000112121212 C0.453958209,0.000112121212 0.000226865672,0.44859697 0.000226865672,1.12132424 L0.000226865672,16.1455667 C0.000226865672,16.8182939 0.453958209,17.2667788 1.13455522,17.2667788 L36.9793313,17.2667788 L36.9793313,22.5364758 L1.13455522,22.5364758 C0.453958209,22.5364758 0.000226865672,22.9849606 0.000226865672,23.6576879 L0.000226865672,38.6819303 C0.000226865672,39.3546576 0.453958209,39.8031424 1.13455522,39.8031424 L36.9793313,39.8031424 L36.9793313,45.0728394 L1.13455522,45.0728394 C0.453958209,45.0728394 0.000226865672,45.5213242 0.000226865672,46.1940515 L0.000226865672,61.2182939 C0.000226865672,61.8910212 0.453958209,62.3395061 1.13455522,62.3395061 L36.9793313,62.3395061 L36.9793313,65.0304152 L33.3494806,65.0304152 C32.6688836,65.0304152 32.2151522,65.4777788 32.2151522,66.1516273 L32.2151522,69.0667788 L1.13455522,69.0667788 C0.453958209,69.0667788 0.000226865672,69.5152636 0.000226865672,70.1879909 C0.000226865672,70.8607182 0.453958209,71.309203 1.13455522,71.309203 L32.1017194,71.309203 L32.1017194,72.8789 C32.1017194,73.5516273 32.5554507,74.0001121 33.2360478,74.0001121 L42.764406,74.0001121 C43.445003,74.0001121 43.8987343,73.5516273 43.8987343,72.8789 L43.8987343,71.5334455 L74.8658985,71.5334455 C75.5453612,71.5334455 76.0002269,71.0838394 76.0002269,70.4122333 C76.0002269,69.7395061 75.5453612,69.2910212 74.8658985,69.2910212 L74.8658985,69.2910212 Z" id="Fill-25"></path>
                    </g>
                </g>
                <path d="M93.6666667,119.5 L145,119.5" id="Line-3" stroke="#000000" stroke-width="2" stroke-linecap="round" stroke-linejoin="round"></path>
                <path id="Line-3-decoration-1" d="M134.2,122.5 L145,119.5 L134.2,116.5" stroke="#000000" stroke-width="2" stroke-linecap="round" stroke-linejoin="round"></path>
                <path d="M180.18662,135 L206.529673,135" id="Line-2" stroke="#000000" stroke-width="6" stroke-linejoin="round"></path>
                <path d="M180.18662,118 L206.529673,118" id="Line-2" stroke="#000000" stroke-width="6" stroke-linejoin="round"></path>
                <path d="M224.666667,118.5 L290.333333,118.5" id="Line-3" stroke="#000000" stroke-width="2" stroke-linecap="round" stroke-linejoin="round"></path>
                <path id="Line-3-decoration-1" d="M279.533333,121.5 L290.333333,118.5 L279.533333,115.5" stroke="#000000" stroke-width="2" stroke-linecap="round" stroke-linejoin="round"></path>
                <polyline id="Path-5" stroke="#000000" stroke-width="2" stroke-linecap="round" stroke-linejoin="round" points="223 135 253.135576 135 253.135576 191 289 191"></polyline>
                <path id="Path-5-decoration-1" d="M278.2,194 L289,191 L278.2,188" stroke="#000000" stroke-width="2" stroke-linecap="round" stroke-linejoin="round"></path>
                <polyline id="Path-5" stroke="#000000" stroke-width="2" stroke-linecap="round" stroke-linejoin="round" transform="translate(256.000000, 72.000000) scale(1, -1) translate(-256.000000, -72.000000) " points="223 44 253.135576 44 253.135576 100 289 100"></polyline>
                <path id="Path-5-decoration-1" d="M278.2,103 L289,100 L278.2,97" stroke="#000000" stroke-width="2" stroke-linecap="round" stroke-linejoin="round"></path>
                <g id="Page-1" transform="translate(302.000000, 164.000000)">
                    <mask id="mask-2" fill="white">
                        <use xlink:href="#path-1"></use>
                    </mask>
                    <g id="Clip-2"></g>
                    <path d="M52,60.1001 L44,60.1001 L44,52.1001 L42,52.1001 L42,60.1001 L12,60.1001 L12,52.1001 L10,52.1001 L10,60.1001 L2,60.1001 L2,47.4991 C2,42.9001 4.9,38.7001 9.3,37.1001 L17.2,34.3001 L27,57.6001 L36.8,34.3001 L44.7,37.1001 C49.1,38.7001 52,42.8001 52,47.4991 L52,60.1001 Z M29.8,45.9001 L27,52.4991 L24.2,45.9001 L27,37.8001 L29.8,45.9001 Z M22.6,30.7001 C24,31.6001 25.4,32.1001 27,32.1001 C28.6,32.1001 30.1,31.6001 31.4,30.7001 C32.1,32.0001 33.5,33.1001 34.9,33.7001 L30.9,43.2001 L28.5,36.2001 L30,36.2001 L30,34.2001 L24,34.2001 L24,36.2001 L25.5,36.2001 L23.1,43.2001 L19.1,33.7001 C20.5,33.1001 21.9,32.0001 22.6,30.7001 L22.6,30.7001 Z M16,13.1001 C16,12.6001 16,12.1001 16.1,11.6001 L22,8.2001 L33.1,13.8001 L37.7,10.9001 C37.8,11.6001 37.9,12.3001 37.9,13.1001 C37.9,19.5001 32.8,30.1001 26.9,30.1001 C21.1,30.1001 16,19.5001 16,13.1001 L16,13.1001 Z M27,2.1001 C31.6,2.1001 35.5,4.9001 37.2,9.0001 L33.1,11.6001 L22,6.0001 L16.9,8.9001 C18.5,4.9001 22.4,2.1001 27,2.1001 L27,2.1001 Z M45.4,35.3001 L35.7,31.8001 C34.5,31.3001 33.3,30.2001 33.1,29.3001 C37.4,25.3001 40,17.8001 40,13.0001 C40,5.8001 34.2,0.0001 27,0.0001 C19.8,0.0001 14,5.8001 14,13.0001 C14,17.7001 16.7,25.2001 20.9,29.3001 C20.7,30.2001 19.5,31.2001 18.3,31.8001 L8.6,35.3001 C3.5,37.2001 0,42.1001 0,47.4991 L0,62.1001 L54,62.1001 L54,47.4991 C54,42.1001 50.5,37.2001 45.4,35.3001 L45.4,35.3001 Z" id="Fill-1" fill="#000000" mask="url(#mask-2)"></path>
                </g>
                <g id="Page-1" transform="translate(299.000000, 87.000000)" stroke="#FFFFFF" fill="#000000">
                    <g id="Group-3">
                        <path d="M15.6131515,24.3885531 C15.6125455,23.9346143 15.7986061,23.4993388 16.128303,23.1844714 C16.2658788,23.0556347 16.4234545,22.9496755 16.5949697,22.8714102 L17.1464848,23.9550837 C17.6737576,25.0008286 18.6022424,25.7925122 19.7222424,26.1525327 C20.8501212,26.5197776 22.078,26.4246551 23.1343636,25.8876347 C25.1725455,24.7907163 27.4367879,24.1730224 29.7525455,24.0815122 C32.068303,24.1742265 34.3325455,24.7919204 36.3707273,25.8876347 C38.5640606,27.0062265 41.2549697,26.1567469 42.3949697,23.9851857 L43.0010303,22.8714102 C43.187697,22.9556959 43.358,23.0712878 43.5046667,23.2145735 C43.827697,23.531849 44.0052727,23.9677265 43.9949697,24.4186551 C43.988303,26.4987061 42.9846667,28.4505224 41.2919394,29.6744714 C40.9519394,29.9243184 40.7319394,30.3042061 40.6858788,30.7220224 C40.3998182,33.5100735 39.3937576,36.1771143 37.7646667,38.4642673 C37.4064848,38.9338592 37.2107273,39.5064 37.2070909,40.095798 L37.2070909,44.2077367 L29.8010303,50.2040633 L22.4070909,44.1836551 L22.4070909,39.9151857 C22.4064848,39.3384306 22.2192121,38.7773286 21.8737576,38.3137571 C20.3167879,36.0741653 19.348303,33.4829816 19.0555758,30.7762061 C19.0058788,30.3487571 18.7743636,29.963451 18.4192121,29.7166143 C16.6652727,28.5016959 15.618,26.5131551 15.6131515,24.3885531 L15.6131515,24.3885531 Z M40.5040606,21.0713082 L39.7222424,22.5703898 C39.3470909,23.2675531 38.478,23.5360633 37.7713333,23.1724306 C35.3022424,21.8708184 32.5646667,21.1519816 29.7707273,21.0713082 C26.9749697,21.1592061 24.2373939,21.8864714 21.7707273,23.1965122 C21.427697,23.3723082 21.0289091,23.4048184 20.6616364,23.2868184 C20.308303,23.1736347 20.0155758,22.9243898 19.8495152,22.5944714 L19.0919394,21.0713082 L20.4010303,20.2946755 C26.187697,16.864849 33.4028485,16.864849 39.1889091,20.2946755 L40.5040606,21.0713082 Z M22.2919394,7.98896122 C24.7167879,6.83545102 27.2107273,5.83004286 29.7586061,4.97875714 C32.3143636,5.78970612 34.8022424,6.79631837 37.2010303,7.98896122 C39.6252727,9.3014102 41.298,10.5355939 41.298,14.3886551 L41.298,18.0611041 L40.7525455,17.7420224 C34.0046667,13.7342367 25.5852727,13.7342367 18.8373939,17.7420224 L18.2858788,18.0611041 L18.2858788,14.3404918 C18.2858788,10.5536551 19.7646667,9.13885918 22.2919394,7.98896122 L22.2919394,7.98896122 Z M1.48587879,58.9998796 L1.48587879,58.9998796 C2.32284848,58.9902469 2.99315152,58.3081347 2.98284848,57.4773184 L2.98284848,57.4767163 C2.94890909,55.0324306 4.4149697,52.8139102 6.68587879,51.8717163 L13.5767879,48.9939612 C13.948303,49.4659612 14.3640606,49.9012367 14.8192121,50.2943694 L21.7343636,56.2244714 C22.3689091,56.7747367 23.3319394,56.7103184 23.8858788,56.0805837 C24.4398182,55.4502469 24.3749697,54.493002 23.7404242,53.9427367 L16.8192121,48.0186551 C14.1246667,45.7110327 13.8234545,41.6701347 16.1464848,38.9928592 C16.4573939,38.6352469 16.8070909,38.3125531 17.1889091,38.030798 L17.8858788,37.5130429 C18.3070909,38.3902163 18.8064848,39.2282571 19.3767879,40.0175327 L19.3767879,44.8880429 C19.3767879,45.3377673 19.5792121,45.7640122 19.928303,46.0499816 L28.8373939,53.3045735 C29.3961818,53.7597163 30.1998182,53.7597163 30.7586061,53.3045735 L39.667697,46.056002 C40.0173939,45.7706347 40.2198182,45.3443898 40.2198182,44.8946653 L40.2198182,40.1746653 C40.827697,39.3546857 41.358,38.4799204 41.8010303,37.5612061 L42.4070909,38.0127367 C45.2652727,40.1180735 45.8646667,44.1258592 43.7452727,46.9650837 C43.4616364,47.3449714 43.1373939,47.692349 42.7767879,48.0011959 L35.8616364,53.9252776 C35.2270909,54.4683184 35.1567879,55.4201449 35.7040606,56.0498796 C36.2513333,56.6802163 37.2095152,56.7500531 37.8434545,56.2070122 L44.7586061,50.2763082 C45.2137576,49.8837776 45.6295152,49.4479 46.0016364,48.9759 L52.8919394,51.8536551 C55.1628485,52.795849 56.6289091,55.0143694 56.5949697,57.4592571 C56.5749697,58.2900735 57.2367879,58.9794102 58.0737576,58.9992776 C58.0816364,58.9998796 58.0901212,58.9998796 58.0986061,58.9998796 C58.927697,58.9998796 59.6034545,58.3376347 59.6137576,57.5134408 C59.6707273,53.8385837 57.4695152,50.5002673 54.0555758,49.0848694 L47.4798182,46.3570224 C48.9107273,42.457002 47.5834545,38.0861857 44.2192121,35.6226347 L42.9343636,34.6774306 C43.2270909,33.6912878 43.447697,32.6852776 43.5949697,31.6672265 C45.7573939,29.8611041 47.0101212,27.2012878 47.0192121,24.3945735 C47.0246667,23.1477469 46.5270909,21.9508898 45.6373939,21.0713082 C45.2610303,20.6992469 44.8246667,20.3916041 44.3464848,20.1622265 L44.3464848,14.3404918 C44.3464848,8.86794082 41.5464848,6.87518571 38.6858788,5.30987959 C36.318,4.11844082 33.8598182,3.11182857 31.3343636,2.29967551 L31.3343636,1.50498163 C31.3343636,0.673563265 30.6561818,-0.000120408163 29.8192121,-0.000120408163 C28.9828485,-0.000120408163 28.3040606,0.673563265 28.3040606,1.50498163 L28.3040606,2.26957347 C27.0919394,2.67294082 24.8858788,3.50977755 21.0313333,5.27977755 C18.1828485,6.55008367 15.2555758,8.64518571 15.2555758,14.3404918 L15.2555758,20.1622265 C14.8095152,20.3801653 14.4004242,20.6667367 14.0434545,21.0111041 C13.1155758,21.8949 12.5943636,23.1182469 12.6010303,24.3945735 C12.6058788,27.2608898 13.9101212,29.9718796 16.1525455,31.7755939 C16.2901212,32.7292265 16.4925455,33.6726245 16.7586061,34.5991653 L15.3828485,35.6166143 C12.0143636,38.0795633 10.6864848,42.4551959 12.1222424,46.3570224 L5.55860606,49.0963082 C2.14466667,50.5123082 -0.0559393939,53.8512265 0.00103030303,57.5248796 C0.0173939394,58.3328184 0.672545455,58.9842265 1.48587879,58.9998796 L1.48587879,58.9998796 Z" id="Fill-1"></path>
                    </g>
                    <path d="M32.5011634,34.0000067 C32.1021149,33.9988223 31.7192928,34.1545758 31.4368338,34.4323264 C30.6465496,35.2093173 29.3670705,35.2093173 28.5767863,34.4323264 C27.9824205,33.8531365 27.0244638,33.8584664 26.4373097,34.4441707 C25.8495546,35.0298751 25.8549634,35.9738717 26.4493292,36.5524694 C28.4145226,38.4825102 31.5930878,38.4825102 33.5588822,36.5524694 C34.1460363,35.9750561 34.1472382,35.0375739 33.5612861,34.458384 C33.2788271,34.179449 32.894803,34.0231032 32.4945526,34.0236955 L32.5011634,34.0000067 Z" id="Fill-4"></path>
                </g>
                <g id="Page-1" transform="translate(302.000000, 0.000000)">
                    <mask id="mask-4" fill="white">
                        <use xlink:href="#path-3"></use>
                    </mask>
                    <g id="Clip-2"></g>
                    <path d="M41.2222222,65.1723666 L41.2222222,69.0574555 L11.7777778,69.0574555 L11.7777778,65.1723666 L9.81481481,65.1723666 L9.81481481,69.0574555 L1.96296296,69.0574555 L1.96296296,57.499316 C1.96296296,57.4021888 2.35555556,50.2147743 10.6981481,47.3009576 C11.5814815,47.0095759 14.2314815,46.2325581 16.7833333,45.1641587 L26.7944444,65.75513 L36.1185185,45.0670315 C38.6703704,46.2325581 41.4185185,47.0095759 42.3018519,47.3009576 C50.6444444,50.2147743 51.2333333,57.3040903 51.2333333,57.499316 L51.2333333,69.1545828 L43.3814815,69.1545828 L43.3814815,65.2694938 L41.2222222,65.2694938 L41.2222222,65.1723666 Z M21.5925926,42.1532148 C21.9851852,42.4445964 22.3777778,42.6388509 22.7703704,42.8331053 C23.4574074,43.6101231 24.9296296,44.0957592 26.6962963,44.0957592 C28.6592593,44.0957592 30.3277778,43.4158687 30.8185185,42.5417237 C31.0148148,42.4445964 31.2111111,42.3474692 31.3092593,42.1532148 C31.9962963,42.9302326 32.9777778,43.6101231 34.1555556,44.1928865 L26.5981481,61.0930233 L18.4518519,44.2900137 C19.8259259,43.6101231 20.9055556,42.9302326 21.5925926,42.1532148 L21.5925926,42.1532148 Z M16.1944444,24.4760602 C16.1944444,18.2599179 20.8074074,13.1121751 26.5,13.1121751 C32.1925926,13.1121751 36.8055556,18.1627907 36.8055556,24.4760602 C36.8055556,31.9548564 33.8611111,38.2681259 29.7388889,40.502052 C28.9537037,40.1135431 27.8740741,39.8221614 26.5981481,39.8221614 C25.2240741,39.8221614 24.0462963,40.1135431 23.2611111,40.5991792 C19.1388889,38.4623803 16.1944444,32.0519836 16.1944444,24.4760602 L16.1944444,24.4760602 Z M53,69.0574555 L53,57.4021888 C53,57.0136799 52.4111111,48.8549932 42.6944444,45.4555404 C39.2592593,44.4842681 34.2537037,42.5417237 32.8796296,40.9876881 C41.5166667,38.2681259 47.7981481,30.4008208 47.7981481,20.9794802 C47.7981481,9.32421341 38.2777778,0 26.5981481,0 C14.9185185,0 5.39814815,9.42134063 5.39814815,20.9794802 C5.39814815,30.4008208 11.5814815,38.2681259 20.2185185,40.9876881 C18.8444444,42.5417237 13.7407407,44.4842681 10.2074074,45.4555404 C0.392592593,48.8549932 0,57.1108071 0,57.4021888 L0,69.0574555 L0,70.0287278 L0,71 L53,71 L53,69.0574555 Z" id="Fill-1" fill="#000000" mask="url(#mask-4)"></path>
                </g>
                <path d="M180.18662,101 L206.529673,101" id="Line-2" stroke="#000000" stroke-width="6" stroke-linejoin="round"></path>
                <path d="M164,135.5 L172,135.5" id="Line-2" stroke="#000000" stroke-width="6" stroke-linejoin="round"></path>
                <path d="M164,118.5 L172,118.5" id="Line-2" stroke="#000000" stroke-width="6" stroke-linejoin="round"></path>
                <path d="M164,100.5 L172,100.5" id="Line-2" stroke="#000000" stroke-width="6" stroke-linejoin="round"></path>
            </g>
        </g>
    </g>
</svg>