<svg width="377" height="227" viewBox="0 0 377 227" xmlns="http://www.w3.org/2000/svg" xmlns:xlink="http://www.w3.org/1999/xlink"><title>Group 14</title><defs><path id="a" d="M10 110h51v8H10z"/><path id="b" d="M10 116h27v8H10z"/><path id="c" d="M54 31.05V62.1H0V0h54z"/><path id="e" d="M53 35.5V71H0V0h53z"/></defs><g fill="none" fill-rule="evenodd"><use fill="#FFF" xlink:href="#a"/><path stroke="#000" stroke-width="2" d="M11 111h49v6H11z"/><use fill="#FFF" xlink:href="#b"/><path stroke="#000" stroke-width="2" d="M11 117h25v6H11z"/><path d="M241.667 118.5h65.666m-10.8 3l10.8-3-10.8-3m-193.866 3H169m-10.8 3l10.8-3-10.8-3" stroke="#000" stroke-width="2" stroke-linecap="round" stroke-linejoin="round"/><path d="M200.187 135h26.343m-26.343-17h26.343m-26.343-17h26.343M184 135.5h8m-8-17h8m-8-18h8" stroke="#000" stroke-width="6" stroke-linejoin="round"/><path stroke="#000" stroke-width="2" stroke-linecap="round" stroke-linejoin="round" d="M240 135h30.136v56H306"/><path d="M295.2 194l10.8-3-10.8-3M240 100h30.136V44H306m-10.8 59l10.8-3-10.8-3M168 135h-30.136v26H102m10.8-23l-10.8-3 10.8-3m55.2-32h-30.136V74H102" stroke="#000" stroke-width="2" stroke-linecap="round" stroke-linejoin="round"/><path d="M112.8 77L102 74l10.8-3" stroke="#000" stroke-width="2" stroke-linecap="round" stroke-linejoin="round"/><g transform="translate(319 164)"><mask id="d" fill="#fff"><use xlink:href="#c"/></mask><path d="M52 60.1h-8v-8h-2v8H12v-8h-2v8H2V47.5c0-4.6 2.9-8.8 7.3-10.4l7.9-2.8L27 57.6l9.8-23.3 7.9 2.8c4.4 1.6 7.3 5.7 7.3 10.4v12.6zM29.8 45.9L27 52.5l-2.8-6.6 2.8-8.1 2.8 8.1zm-7.2-15.2c1.4.9 2.8 1.4 4.4 1.4 1.6 0 3.1-.5 4.4-1.4.7 1.3 2.1 2.4 3.5 3l-4 9.5-2.4-7H30v-2h-6v2h1.5l-2.4 7-4-9.5c1.4-.6 2.8-1.7 3.5-3zM16 13.1c0-.5 0-1 .1-1.5L22 8.2l11.1 5.6 4.6-2.9c.1.7.2 1.4.2 2.2 0 6.4-5.1 17-11 17-5.8 0-10.9-10.6-10.9-17zm11-11c4.6 0 8.5 2.8 10.2 6.9l-4.1 2.6L22 6l-5.1 2.9c1.6-4 5.5-6.8 10.1-6.8zm18.4 33.2l-9.7-3.5c-1.2-.5-2.4-1.6-2.6-2.5 4.3-4 6.9-11.5 6.9-16.3 0-7.2-5.8-13-13-13S14 5.8 14 13c0 4.7 2.7 12.2 6.9 16.3-.2.9-1.4 1.9-2.6 2.5l-9.7 3.5C3.5 37.2 0 42.1 0 47.5v14.6h54V47.5c0-5.4-3.5-10.3-8.6-12.2z" fill="#000" mask="url(#d)"/></g><g stroke="#000" stroke-width="2"><path d="M54.814 61.5h-31.63m31.629 5H28m26.816 5H37" stroke-linecap="square"/><path d="M1 38h85v39H1z"/><path d="M6 43h49v6H6zm0 6h25v6H6zm55 4h20v19H61zm.388 19.045L80.53 52.902m-19.142 0L80.53 72.045"/></g><g stroke="#000" stroke-width="2"><path d="M1 97h85v39H1z"/><path d="M65 102h16v29H65zm-.07 28.578l15.853-28.524m-15.853 0l15.853 28.524M26.532 97.086c-2.666 6.425-4 12.85-4 19.276 0 6.425 1.334 12.85 4 19.275"/></g><g stroke="#000" stroke-width="2"><path d="M6 160h30v29H6zm1 28l28-28m-28 0l28 28"/><path d="M80.813 183.5H54m26.816 5H63" stroke-linecap="square"/><path d="M1 155h85v39H1z"/><path d="M42 160h39v6H42zm7 6h32v6H49zm7 6h25v6H56z"/></g><g stroke="#FFF" fill="#000"><path d="M331.613 111.389a1.663 1.663 0 0 1 .982-1.518l.551 1.084a4.386 4.386 0 0 0 2.576 2.198 4.474 4.474 0 0 0 3.412-.265 15.236 15.236 0 0 1 6.619-1.806c2.315.092 4.58.71 6.618 1.806 2.193 1.118 4.884.269 6.024-1.903l.606-1.114c.187.085.357.2.504.344.323.317.5.753.49 1.204a6.512 6.512 0 0 1-2.703 5.255c-.34.25-.56.63-.606 1.048a16.193 16.193 0 0 1-2.921 7.742 2.718 2.718 0 0 0-.558 1.632v4.112l-7.406 5.996-7.394-6.02v-4.269a2.68 2.68 0 0 0-.533-1.601 16.268 16.268 0 0 1-2.818-7.538 1.502 1.502 0 0 0-.637-1.06 6.5 6.5 0 0 1-2.806-5.327zm24.891-3.318l-.782 1.5a1.459 1.459 0 0 1-1.95.601 18.29 18.29 0 0 0-8.001-2.1 18.282 18.282 0 0 0-8 2.125 1.455 1.455 0 0 1-1.11.09 1.38 1.38 0 0 1-.811-.693l-.758-1.523 1.309-.776a18.439 18.439 0 0 1 18.788 0l1.315.776zM338.292 94.99a66.27 66.27 0 0 1 7.467-3.01 52.133 52.133 0 0 1 7.442 3.01c2.424 1.312 4.097 2.547 4.097 6.4v3.672l-.545-.319a21.475 21.475 0 0 0-21.916 0l-.551.32v-3.722c0-3.786 1.479-5.201 4.006-6.351zM317.486 146a1.51 1.51 0 0 0 1.497-1.522 5.984 5.984 0 0 1 3.703-5.605l6.89-2.878c.372.472.788.907 1.243 1.3l6.915 5.93c.635.55 1.598.486 2.152-.143a1.508 1.508 0 0 0-.146-2.138l-6.92-5.924a6.37 6.37 0 0 1 .369-9.988l.697-.518c.421.877.92 1.715 1.49 2.505v4.87c0 .45.203.876.552 1.162l8.91 7.255a1.522 1.522 0 0 0 1.92 0l8.91-7.249c.35-.285.552-.712.552-1.161v-4.72a16.222 16.222 0 0 0 1.581-2.614l.606.452a6.372 6.372 0 0 1 .37 9.988l-6.915 5.924a1.499 1.499 0 0 0-.158 2.125c.547.63 1.506.7 2.14.157l6.915-5.93c.455-.393.87-.83 1.243-1.301l6.89 2.878a5.984 5.984 0 0 1 3.703 5.605 1.51 1.51 0 1 0 3.019.054 8.98 8.98 0 0 0-5.558-8.428l-6.576-2.728a9.32 9.32 0 0 0-3.26-10.734l-1.286-.946c.293-.986.514-1.992.661-3.01a9.516 9.516 0 0 0 3.424-7.272 4.644 4.644 0 0 0-1.382-3.324 4.774 4.774 0 0 0-1.29-.909v-5.822c0-5.472-2.8-7.465-5.661-9.03a51.294 51.294 0 0 0-7.352-3.01v-.795A1.51 1.51 0 0 0 345.82 87a1.51 1.51 0 0 0-1.515 1.505v.765c-1.212.403-3.418 1.24-7.273 3.01-2.848 1.27-5.775 3.365-5.775 9.06v5.822a4.749 4.749 0 0 0-1.213.85 4.639 4.639 0 0 0-1.442 3.383 9.493 9.493 0 0 0 3.552 7.38c.137.954.34 1.898.606 2.824l-1.376 1.018a9.314 9.314 0 0 0-3.26 10.74l-6.564 2.74a8.982 8.982 0 0 0-5.558 8.428 1.51 1.51 0 0 0 1.485 1.475z"/><path d="M348.501 121a1.512 1.512 0 0 0-1.064.432c-.79.777-2.07.777-2.86 0a1.528 1.528 0 0 0-2.14.012 1.475 1.475 0 0 0 .012 2.108 5.089 5.089 0 0 0 7.11 0 1.466 1.466 0 0 0 .002-2.094 1.515 1.515 0 0 0-1.066-.434l.006-.024z"/></g><g transform="translate(319)"><mask id="f" fill="#fff"><use xlink:href="#e"/></mask><path d="M41.222 65.172v3.885H11.778v-3.885H9.815v3.885H1.963V57.5c0-.097.393-7.284 8.735-10.198.883-.291 3.533-1.068 6.085-2.137l10.011 20.591 9.325-20.688c2.551 1.166 5.3 1.943 6.183 2.234 8.342 2.914 8.931 10.003 8.931 10.198v11.656h-7.852V65.27h-2.159v-.097zm-19.63-23.019c.393.292.786.486 1.178.68.687.777 2.16 1.263 3.926 1.263 1.963 0 3.632-.68 4.123-1.554.196-.097.392-.195.49-.389.687.777 1.669 1.457 2.847 2.04l-7.558 16.9-8.146-16.803c1.374-.68 2.454-1.36 3.14-2.137zm-5.398-17.677c0-6.216 4.613-11.364 10.306-11.364 5.693 0 10.306 5.05 10.306 11.364 0 7.479-2.945 13.792-7.067 16.026-.785-.388-1.865-.68-3.14-.68-1.375 0-2.553.292-3.338.777-4.122-2.137-7.067-8.547-7.067-16.123zM53 69.057V57.402c0-.388-.589-8.547-10.306-11.946-3.435-.972-8.44-2.914-9.814-4.468 8.637-2.72 14.918-10.587 14.918-20.009C47.798 9.324 38.278 0 26.598 0s-21.2 9.421-21.2 20.98c0 9.42 6.183 17.288 14.82 20.008-1.374 1.554-6.477 3.496-10.01 4.468C.392 48.855 0 57.11 0 57.402V71h53v-1.943z" fill="#000" mask="url(#f)"/></g></g></svg>