<?xml version="1.0" encoding="UTF-8"?>
<svg width="383px" height="148px" viewBox="0 0 383 148" version="1.1" xmlns="http://www.w3.org/2000/svg" xmlns:xlink="http://www.w3.org/1999/xlink">
    <!-- Generator: Sketch 46.1 (44463) - http://www.bohemiancoding.com/sketch -->
    <title>Group 12</title>
    <desc>Created with Sketch.</desc>
    <defs></defs>
    <g id="Page-1" stroke="none" stroke-width="1" fill="none" fill-rule="evenodd">
        <g id="metrix-landing" transform="translate(-104.000000, -2116.000000)" stroke="#000000">
            <g id="Group-12" transform="translate(104.000000, 2117.000000)">
                <rect id="Rectangle-16" stroke-width="2" x="65" y="68" width="15" height="14"></rect>
                <g id="Group-11">
                    <path d="M59.8546512,74.5 L35.1436389,74.5" id="Line-4" stroke-width="2" stroke-linecap="square"></path>
                    <path d="M59.8541667,78.5 L39,78.5" id="Line-4" stroke-width="2" stroke-linecap="square"></path>
                    <path d="M59.8571429,82.5 L46,82.5" id="Line-4" stroke-width="2" stroke-linecap="square"></path>
                    <rect id="Rectangle-14" stroke-width="2" x="18" y="56" width="66" height="30"></rect>
                    <rect id="Rectangle-15" stroke-width="2" x="22" y="60" width="38" height="4"></rect>
                    <rect id="Rectangle-15" stroke-width="2" x="22" y="64" width="19" height="4"></rect>
                    <path d="M65,82 L80.0297852,67.9384766" id="Path-9" stroke-width="2"></path>
                    <path d="M65.0180664,68.2353516 L80,82" id="Path-9" stroke-width="2"></path>
                    <path d="M112.666667,76.5 L164,76.5" id="Line-3" stroke-width="2" stroke-linecap="round" stroke-linejoin="round"></path>
                    <path id="Line-3-decoration-1" d="M153.2,79.5 L164,76.5 L153.2,73.5" stroke-width="2" stroke-linecap="round" stroke-linejoin="round"></path>
                    <path d="M199.18662,92 L225.529673,92" id="Line-2" stroke-width="6" stroke-linejoin="round"></path>
                    <path d="M199.18662,75 L225.529673,75" id="Line-2" stroke-width="6" stroke-linejoin="round"></path>
                    <path d="M199.18662,58 L225.529673,58" id="Line-2" stroke-width="6" stroke-linejoin="round"></path>
                    <path d="M183,92.5 L191,92.5" id="Line-2" stroke-width="6" stroke-linejoin="round"></path>
                    <path d="M183,75.5 L191,75.5" id="Line-2" stroke-width="6" stroke-linejoin="round"></path>
                    <path d="M183,57.5 L191,57.5" id="Line-2" stroke-width="6" stroke-linejoin="round"></path>
                    <polyline id="Path-5" stroke-width="2" stroke-linecap="round" stroke-linejoin="round" points="239 92 269.135576 92 269.135576 118 305 118"></polyline>
                    <path id="Path-5-decoration-1" d="M294.2,121 L305,118 L294.2,115" stroke-width="2" stroke-linecap="round" stroke-linejoin="round"></path>
                    <polyline id="Path-5" stroke-width="2" stroke-linecap="round" stroke-linejoin="round" transform="translate(272.000000, 44.000000) scale(1, -1) translate(-272.000000, -44.000000) " points="239 31 269.135576 31 269.135576 57 305 57"></polyline>
                    <path id="Path-5-decoration-1" d="M294.2,60 L305,57 L294.2,54" stroke-width="2" stroke-linecap="round" stroke-linejoin="round"></path>
                    <circle id="Oval-3" stroke-width="2" cx="351" cy="30" r="30"></circle>
                    <g id="Group-5" transform="translate(320.000000, 88.000000)" stroke-width="2">
                        <rect id="Rectangle-10" x="4" y="31" width="8" height="27"></rect>
                        <rect id="Rectangle-10" x="16" y="20" width="8" height="38"></rect>
                        <rect id="Rectangle-10" x="28" y="50" width="8" height="8"></rect>
                        <rect id="Rectangle-10" x="40" y="8" width="8" height="50"></rect>
                        <polyline id="Path-6" points="0.37109375 0.44921875 0.37109375 57.9050873 62.5378035 57.9050873"></polyline>
                    </g>
                    <polyline id="Path-7" stroke-width="2" stroke-linecap="round" stroke-linejoin="round" points="322 31 351 31 330.061897 10"></polyline>
                    <path d="M350,31 L363,56" id="Path-8" stroke-width="2"></path>
                    <rect id="Rectangle-12" stroke-width="2" x="8" y="44" width="87" height="57" rx="4"></rect>
                    <rect id="Rectangle-12" stroke-width="2" x="13" y="50" width="77" height="46"></rect>
                    <path d="M3.00022308,101 C2.93400483,101 2.86782744,101.003289 2.80193544,101.009854 C1.70280803,101.119365 0.900565609,102.09916 1.01007685,103.198288 L1.40861567,107.198288 C1.51051369,108.221004 2.37098207,109 3.3987619,109 L97.6015691,109 C98.6293489,109 99.4898173,108.221004 99.5917153,107.198288 L99.9902541,103.198288 C99.9968193,103.132396 100.000108,103.066218 100.000108,103 C100.000108,101.895431 99.1046774,101 98.0001079,101 L3.00022308,101 Z" id="Rectangle-13" stroke-width="2"></path>
                </g>
            </g>
        </g>
    </g>
</svg>