<?xml version="1.0" encoding="UTF-8"?>
<svg width="584px" height="102px" viewBox="0 0 584 102" version="1.1" xmlns="http://www.w3.org/2000/svg" xmlns:xlink="http://www.w3.org/1999/xlink">
    <!-- Generator: Sketch 46.1 (44463) - http://www.bohemiancoding.com/sketch -->
    <title>Group 5</title>
    <desc>Created with Sketch.</desc>
    <defs>
        <polygon id="path-1" points="0 102 584 102 584 0 0 0"></polygon>
    </defs>
    <g id="Page-1" stroke="none" stroke-width="1" fill="none" fill-rule="evenodd">
        <g id="metrix-landing" transform="translate(-346.000000, -346.000000)">
            <g id="Group-5" transform="translate(346.000000, 346.000000)">
                <g id="Page-1">
                    <path d="M42.3762376,102 L18.2791423,21.9747368 L17.6587167,21.9747368 C18.5249713,38.2529825 18.9580986,49.1150877 18.9580986,54.5550877 L18.9580986,102 L0,102 L0,0 L28.8849078,0 L52.5722882,78.0031579 L52.9820032,78.0031579 L78.1092391,0 L107,0 L107,102 L87.2166183,102 L87.2166183,53.72 C87.2166183,51.4414035 87.2517368,48.8108772 87.3219736,45.834386 C87.3863574,42.8578947 87.6907171,34.954386 88.2409059,22.1119298 L87.6204803,22.1119298 L61.8142881,102 L42.3762376,102 Z" id="Fill-1" fill="#1D1D1B"></path>
                    <path d="M362.161408,45.2796491 L373.836176,45.2796491 C380.63114,45.2796491 385.647317,44.1403509 388.884708,41.8617544 C392.122099,39.5831579 393.740795,35.9982456 393.740795,31.1189474 C393.740795,26.2814035 392.086524,22.8396491 388.777981,20.7936842 C385.481297,18.7477193 380.352463,17.7217544 373.421126,17.7217544 L362.161408,17.7217544 L362.161408,45.2796491 Z M362.161408,62.8642105 L362.161408,102 L344,102 L344,0 L373.539712,0 C387.313447,0 397.511822,2.52315789 404.122978,7.56947368 C410.734134,12.6157895 414.042676,20.2807018 414.042676,30.5582456 C414.042676,36.5589474 412.400264,41.8975439 409.115438,46.5680702 C405.830613,51.2445614 401.18798,54.9070175 395.175683,57.5614035 C410.437669,80.4905263 420.375156,95.3014035 425,102 L401.140546,102 L376.937193,62.8642105 L362.161408,62.8642105 Z" id="Fill-3" fill="#1D1D1B"></path>
                    <polygon id="Fill-5" fill="#1D1D1B" points="584 102 559.638127 102 536.246965 63.4189474 512.844036 102 490 102 523.374765 49.3954386 492.135561 0 515.667918 0 537.341219 36.6961404 558.608587 0 581.593816 0 550.00751 50.5824561"></polygon>
                    <mask id="mask-2" fill="white">
                        <use xlink:href="#path-1"></use>
                    </mask>
                    <g id="Clip-8"></g>
                    <polygon id="Fill-7" fill="#1D1D1B" mask="url(#mask-2)" points="136 18 154 18 154 0 136 0"></polygon>
                    <polygon id="Fill-9" fill="#1D1D1B" mask="url(#mask-2)" points="162 18 212 18 212 0 162 0"></polygon>
                    <polygon id="Fill-10" fill="#1D1D1B" mask="url(#mask-2)" points="136 102 154 102 154 84 136 84"></polygon>
                    <polygon id="Fill-11" fill="#1D1D1B" mask="url(#mask-2)" points="162 102 212 102 212 84 162 84"></polygon>
                    <polygon id="Fill-12" fill="#1D1D1B" mask="url(#mask-2)" points="136 60 154 60 154 42 136 42"></polygon>
                    <polygon id="Fill-13" fill="#1D1D1B" mask="url(#mask-2)" points="162 60 212 60 212 42 162 42"></polygon>
                    <polygon id="Fill-16" fill="#1D1D1B" mask="url(#mask-2)" points="269 18 287 18 287 0 269 0"></polygon>
                    <polygon id="Fill-17" fill="#1D1D1B" mask="url(#mask-2)" points="269 102 287 102 287 0 269 0"></polygon>
                    <polygon id="Fill-18" fill="#1D1D1B" mask="url(#mask-2)" points="240 18 316 18 316 0 240 0"></polygon>
                </g>
                <polygon id="Fill-7" fill="#1D1D1B" points="448 18 466 18 466 0 448 0"></polygon>
                <polygon id="Fill-10" fill="#1D1D1B" points="448 102 466 102 466 53 448 53"></polygon>
                <polygon id="Fill-12" fill="#1D1D1B" points="448 60 466 60 466 42 448 42"></polygon>
            </g>
        </g>
    </g>
</svg>